<svg width="32" height="32" xmlns="http://www.w3.org/2000/svg" xmlns:xlink="http://www.w3.org/1999/xlink"><defs><path id="a" d="M0 0h31.914v32H0z"/><path id="c" d="M0 0h302335.31v303978.437H0z"/><path id="d" d="M0 .023h21.973V18.91H0z"/></defs><g fill="none" fill-rule="evenodd"><mask id="b" fill="#fff"><use xlink:href="#a"/></mask><g><path d="M12.888 6.471a3.125 3.125 0 116.25 0 3.125 3.125 0 01-6.25 0m4.378 11.8c1.882-3.2 5.218-9.233 5.218-11.8a6.471 6.471 0 00-12.943 0c0 2.567 3.336 8.6 5.218 11.8a1.454 1.454 0 002.507 0" fill="#335C9E"/><g transform="translate(7 13.01)"><mask id="e" fill="#fff"><use xlink:href="#d"/></mask><path d="M21.12 15.192a494.726 494.726 0 00-4.675-4.121 8.961 8.961 0 001.58-5.092A8.975 8.975 0 0015.771.023l-.059.124a67.562 67.562 0 01-1.219 2.405c.625.994.987 2.169.987 3.427a6.475 6.475 0 01-6.467 6.467A6.475 6.475 0 012.545 5.98c0-1.258.363-2.433.987-3.427C3.115 1.765 2.7.952 2.313.147L2.255.023A8.975 8.975 0 000 5.98c0 4.97 4.043 9.013 9.013 9.013 1.897 0 3.659-.59 5.113-1.595.707.835 3.666 4.327 4.231 4.958.755.844 2.37.667 3.092-.15.657-.74.847-1.952-.328-3.013" fill="#335C9E" mask="url(#e)"/></g></g></g></svg>