<?xml version="1.0" encoding="UTF-8"?>
<svg width="32px" height="32px" viewBox="0 0 32 32" version="1.1" xmlns="http://www.w3.org/2000/svg" xmlns:xlink="http://www.w3.org/1999/xlink">
    <title>icons/marques/transport/agremob</title>
    <defs>
        <rect id="path-1" x="0" y="0" width="31.9137466" height="32"></rect>
        <rect id="path-3" x="0" y="0" width="302335.31" height="303978.437"></rect>
        <polygon id="path-5" points="0 0.0231090909 21.9729951 0.0231090909 21.9729951 18.9090795 0 18.9090795"></polygon>
    </defs>
    <g id="icons/marques/transport/agremob" stroke="none" stroke-width="1" fill="none" fill-rule="evenodd">
        <g id="Proposition-n°5-bis">
            <mask id="mask-2" fill="white">
                <use xlink:href="#path-1"></use>
            </mask>
            <g id="Rectangle"></g>
            <g id="Group" mask="url(#mask-2)">
                <g transform="translate(-78.490566, -30.188679)" id="Clipped">
                    <mask id="mask-4" fill="white">
                        <use xlink:href="#path-3"></use>
                    </mask>
                    <g id="Rectangle"></g>
                </g>
            </g>
        </g>
        <g id="Group-6" transform="translate(7.000000, 0.000000)">
            <path d="M5.88800909,6.47140909 C5.88800909,4.74577273 7.28700909,3.34677273 9.01264545,3.34677273 C10.7383727,3.34677273 12.1372818,4.74577273 12.1372818,6.47140909 C12.1372818,8.19713636 10.7383727,9.59604545 9.01264545,9.59604545 C7.28700909,9.59604545 5.88800909,8.19713636 5.88800909,6.47140909 M10.2663727,18.2712273 C12.1480091,15.0718636 15.4841,9.03759091 15.4841,6.47140909 C15.4841,2.89740909 12.5867364,4.54545455e-05 9.01264545,4.54545455e-05 C5.43864545,4.54545455e-05 2.54128182,2.89740909 2.54128182,6.47140909 C2.54128182,9.03759091 5.87737273,15.0718636 7.75891818,18.2712273 C8.32146364,19.2275909 9.70391818,19.2275909 10.2663727,18.2712273" id="Fill-1" fill="#335C9E"></path>
            <g id="Group-5" transform="translate(0.000000, 13.009455)">
                <mask id="mask-6" fill="white">
                    <use xlink:href="#path-5"></use>
                </mask>
                <g id="Clip-4"></g>
                <path d="M21.1208727,15.1922 C19.8699636,14.0634727 17.4413273,11.9400182 16.4451455,11.0706545 C17.4413273,9.62101818 18.0253273,7.86701818 18.0253273,5.97901818 C18.0253273,3.69783636 17.1729636,1.61238182 15.7706,0.0231090909 C15.7509636,0.0644727273 15.7321455,0.104654545 15.7120545,0.146563636 C15.3256909,0.952109091 14.9103273,1.76547273 14.4934182,2.55192727 C15.1175091,3.54638182 15.4798727,4.72083636 15.4798727,5.97901818 C15.4798727,9.54510909 12.5786909,12.4462909 9.01269091,12.4462909 C5.4466,12.4462909 2.54541818,9.54510909 2.54541818,5.97901818 C2.54541818,4.72083636 2.90787273,3.54638182 3.53196364,2.55192727 C3.11505455,1.76547273 2.69969091,0.952109091 2.31332727,0.146563636 C2.29323636,0.104654545 2.27441818,0.0644727273 2.25469091,0.0231090909 C0.852327273,1.61238182 -3.63636364e-05,3.69783636 -3.63636364e-05,5.97901818 C-3.63636364e-05,10.9486545 4.04305455,14.9917455 9.01269091,14.9917455 C10.9100545,14.9917455 12.6719636,14.4019273 14.1258727,13.3965636 C14.8328727,14.2315636 17.7916909,17.7236545 18.3569636,18.3553818 C19.1121455,19.1994727 20.7263273,19.0217455 21.4494182,18.2054727 C22.1058727,17.4644727 22.2960545,16.2525636 21.1208727,15.1922" id="Fill-3" fill="#335C9E" mask="url(#mask-6)"></path>
            </g>
        </g>
    </g>
</svg>